# xmcd CD database file
#
# Track frame offsets:
#	150
#	18048
#	37146
#	72519
#	102867
#	131040
#	138138
#	170286
#	193734
#	229632
#
# Disc length: 3581 seconds
#
# Revision: 0
# Processed by: cddbd v1.5.2PL0 Copyright (c) Steve Scherf et al.
# Submitted via: CDex 1.70beta2
#
DISCID=830dfb0a
DTITLE=Dean Taba - The Camarillo Waltz
DYEAR=2007
DGENRE=Jazz
TTITLE0=Tim-Ay!
TTITLE1=J.T.
TTITLE2=You Don't Say
TTITLE3=Reminiscence
TTITLE4=Antti Matters
TTITLE5=Choy's Joy
TTITLE6=Tango Rubato
TTITLE7=Penguin Scramble
TTITLE8=The Camarillo Waltz
TTITLE9=Allie-Gator
EXTD=YEAR: 2007
EXTT0=
EXTT1=
EXTT2=
EXTT3=
EXTT4=
EXTT5=
EXTT6=
EXTT7=
EXTT8=
EXTT9=
PLAYORDER=
